<svg viewBox="0 0 124 142" xmlns="http://www.w3.org/2000/svg"><path d="M58.887 11.25a6.388 6.388 0 0 0 1.576.512c.52.076.914.114 1.183.114.255 0 .646-.037 1.175-.112.44-.081.864-.207 1.268-.373l.298-.131.328 4.493c.397.124.771.274 1.117.447 1.712.856 2.719 2.277 2.719 3.891 0 1.615-1.007 3.035-2.72 3.891a7.221 7.221 0 0 1-.51.23l.804 11.267.596.065.957.126.387.058a38.045 38.045 0 0 1 25.988 16.587l.285.436.824.266c3.507 1.151 6.796 2.491 9.79 3.988 11.801 5.902 18.34 13.847 18.34 22.395 0 1.685-.254 3.347-.752 4.975l-.012.066c-1.378 7.328-5.789 13.81-12.838 18.911l1.95 6.785.413 1.47a5.438 5.438 0 0 1-1.845 10.55 5.435 5.435 0 0 1-4.271-8.798l-2.713-5.366-.261-.595-.614.303c-9.813 4.762-22.408 7.573-35.706 8.137l-1.753 15.735-.004.078a5.435 5.435 0 1 1-6.47.124 1.173 1.173 0 0 1-.011-.178l-1.702-15.266-.061-.493c-13.563-.576-26.394-3.49-36.286-8.426l-.383.689-2.908 5.443-.03.07a5.435 5.435 0 1 1-5.94-2.124l2.573-8.12C6.708 98.293 2.238 91.766.802 84.533A16.932 16.932 0 0 1 0 79.4c0-8.548 6.54-16.493 18.342-22.395 3.228-1.614 6.797-3.045 10.61-4.253A38.059 38.059 0 0 1 54.69 35.814l.769-.121.371-.053c.446-.062.89-.115 1.338-.161l.803-11.267a7.234 7.234 0 0 1-.51-.23c-1.711-.856-2.718-2.276-2.718-3.89 0-1.616 1.007-3.035 2.719-3.892a7.682 7.682 0 0 1 1.107-.446l.32-4.503Zm37.134 44.382.138.267a38.282 38.282 0 0 1 4.259 17.631c0 5.491-4.16 10.563-11.642 14.306-7.295 3.648-17.022 5.617-27.13 5.617-10.106 0-19.833-1.97-27.129-5.617-7.482-3.743-11.641-8.815-11.641-14.306 0-.381.005-.763.017-1.143a38.274 38.274 0 0 1 4.38-16.755l-.079.027a68.698 68.698 0 0 0-7.868 3.314C8.256 64.508 2.2 71.773 2.2 79.4c0 7.627 6.056 14.891 17.126 20.427 23.318 11.662 61.323 11.662 84.641 0 11.07-5.536 17.126-12.8 17.126-20.427 0-7.627-6.057-14.892-17.126-20.427a68.727 68.727 0 0 0-7.946-3.341ZM61.647 95.258c3.05 0 5.578 2.336 5.523 5.523-.012.667-.54 1.583-1.618 2.122-2.157 1.079-5.654 1.079-7.811 0-1.079-.539-1.606-1.455-1.618-2.122-.055-3.015 2.473-5.523 5.524-5.523Zm-27-.52-.005.159-.003.01c-.057.957-1.069 1.902-3.066 2.418a9.318 9.318 0 0 1-4.653 0c-1.998-.516-3.01-1.461-3.073-2.418v-.083c0-2.721 1.921-5.164 4.615-5.552 3.331-.48 6.185 2.153 6.185 5.467Zm59.279-5.515c3.05 0 5.522 2.256 5.524 5.523 0 .746-.714 1.52-1.75 2.039-2.158 1.078-5.655 1.078-7.812 0-1.411-.706-1.523-1.688-1.457-2.603a5.524 5.524 0 0 1 5.495-4.96ZM14.392 71.305c2.721.405 4.66 2.72 4.676 5.603.003.623-.582 1.377-1.619 1.896-2.157 1.079-5.653 1.079-7.811 0-1.036-.519-1.605-1.388-1.618-2.038-.067-3.553 2.945-5.97 6.372-5.461Zm95.904-.063c3.051 0 5.59 2.27 5.524 5.524-.013.65-.582 1.52-1.618 2.038-2.157 1.079-5.654 1.079-7.811 0-1.036-.519-1.604-1.388-1.618-2.038-.066-3.11 2.473-5.524 5.523-5.524ZM66.41 39.454l.259 3.723-.006.164c-.039.425-.218.823-.526 1.183l-.14.152-.128.121a3.98 3.98 0 0 1-.876.582c-.913.457-2.109.699-3.345.699-1.238 0-2.433-.242-3.347-.699a4.402 4.402 0 0 1-.567-.337l-.153-.114c-.615-.485-.959-1.094-.959-1.765l.002-.047.259-3.662-.173.044-.397.11-.386.118-.29.097-.286.103-.39.153-.388.168a10.97 10.97 0 0 0-.366.174c-.722.361-1.318.763-1.77 1.192-.678.64-1.017 1.319-1.017 1.992 0 1.13.963 2.272 2.787 3.184 4.085 2.043 10.795 2.043 14.88 0 1.824-.912 2.788-2.054 2.788-3.184 0-1.13-.964-2.272-2.788-3.184a11.157 11.157 0 0 0-.983-.434l-.19-.072-.192-.07-.356-.12a15.01 15.01 0 0 0-.782-.227l-.174-.044ZM64.838 17.5l.13 1.99.013.116-.007.131c-.054.564-.426 1.047-1.023 1.387l-.154.082c-.601.301-1.364.459-2.15.459-.794 0-1.558-.157-2.159-.458-.74-.37-1.185-.94-1.185-1.612v-.283l.022-.014.121-1.794c-.092.04-.182.082-.27.126-1.183.592-1.834 1.49-1.834 2.46 0 .971.65 1.868 1.834 2.46.942.47 2.178.734 3.47.734 1.294 0 2.529-.263 3.47-.734 1.183-.592 1.835-1.49 1.835-2.46s-.651-1.868-1.834-2.46a5.492 5.492 0 0 0-.28-.13Zm-4.362-6.758-.146-.034-.194-.05-.279-.09-.19-.07-.218-.09-.23-.11-.249-.132a5.435 5.435 0 1 1 5.507-.091l-.305.174-.142.072-.254.116-.095.04-.13.05-.244.084-.304.088-.119.03-.168.036a5.461 5.461 0 0 1-1.91.04l-.33-.063Z" fill="#000" fill-rule="evenodd"/></svg>